<svg width="10" height="11" viewBox="0 0 10 11" fill="none" xmlns="http://www.w3.org/2000/svg">
<g clip-path="url(#clip0)">
<path d="M9.97393 3.99959C9.90847 3.7971 9.72887 3.65328 9.51639 3.63413L6.63011 3.37206L5.4888 0.700707C5.40465 0.504932 5.21299 0.378204 5.00005 0.378204C4.78711 0.378204 4.59545 0.504932 4.5113 0.701165L3.36999 3.37206L0.483257 3.63413C0.271154 3.65374 0.0920116 3.7971 0.0261682 3.99959C-0.0396751 4.20208 0.0211327 4.42418 0.181583 4.56418L2.36326 6.47753L1.71994 9.31139C1.67286 9.51975 1.75374 9.73513 1.92662 9.86011C2.01955 9.92725 2.12827 9.96143 2.23791 9.96143C2.33244 9.96143 2.42621 9.93594 2.51036 9.88559L5.00005 8.39759L7.48882 9.88559C7.67094 9.99515 7.90052 9.98516 8.07302 9.86011C8.24598 9.73475 8.32678 9.51929 8.27971 9.31139L7.63638 6.47753L9.81806 4.56456C9.97851 4.42418 10.0398 4.20246 9.97393 3.99959V3.99959Z" fill="#FFC107"/>
</g>
<defs>
<clipPath id="clip0">
<rect width="10" height="10" fill="white" transform="translate(0 0.163635)"/>
</clipPath>
</defs>
</svg>
