<svg width="127" height="28" viewBox="0 0 127 28" fill="none" xmlns="http://www.w3.org/2000/svg">
<g clip-path="url(#clip0)">
<path d="M26.9947 6.65895C26.9632 6.36854 26.7827 6.11151 26.513 5.98563L13.8567 0.0793852C13.6306 -0.0261362 13.3693 -0.0261362 13.1431 0.0793852L0.486896 5.98563C0.217213 6.11151 0.0367559 6.36849 0.00516797 6.65895C0.00448242 6.66501 0 6.7458 0 6.75023V21.094C0 21.439 0.210041 21.7493 0.530402 21.8773L13.1867 26.9398C13.2872 26.9801 13.3936 27.0002 13.5 27.0002C13.6064 27.0002 13.7128 26.9801 13.8133 26.9398L26.4696 21.8773C26.79 21.7493 27 21.439 27 21.094V6.75023C27 6.7458 26.9954 6.66496 26.9947 6.65895ZM13.5 1.77506L24.0334 6.69064L19.9774 8.31307L9.24576 3.7604L13.5 1.77506ZM7.18822 4.72059L17.7533 9.20264L13.5 10.904L2.96662 6.69064L7.18822 4.72059ZM1.6875 7.99645L12.6562 12.3839V24.9102L1.6875 20.5227V7.99645ZM14.3438 24.9103V12.3839L25.3125 7.99645V20.5227L14.3438 24.9103Z" fill="#0A143A"/>
</g>
<path d="M48.4102 22H44.8945V14.6875H38.0391V22H34.5234V4.9375H38.0391V11.8516H44.8945V4.9375H48.4102V22Z" fill="#0A143A"/>
<path d="M56.0039 17.207L58.3477 9.32031H61.9805L56.8828 23.9688L56.6016 24.6367C55.8438 26.293 54.5938 27.1211 52.8516 27.1211C52.3594 27.1211 51.8594 27.0469 51.3516 26.8984V24.332L51.8672 24.3438C52.5078 24.3438 52.9844 24.2461 53.2969 24.0508C53.6172 23.8555 53.8672 23.5312 54.0469 23.0781L54.4453 22.0352L50.0039 9.32031H53.6484L56.0039 17.207Z" fill="#0A143A"/>
<path d="M74.2617 17.3242H72.9023V22H69.5156V9.32031H72.9023V14.0898H74.1094L76.875 9.32031H81.1523L77.0039 15.3555L81.5391 22H77.0273L74.2617 17.3242Z" fill="#0A143A"/>
<path d="M87.5508 17.207L89.8945 9.32031H93.5273L88.4297 23.9688L88.1484 24.6367C87.3906 26.293 86.1406 27.1211 84.3984 27.1211C83.9062 27.1211 83.4062 27.0469 82.8984 26.8984V24.332L83.4141 24.3438C84.0547 24.3438 84.5312 24.2461 84.8438 24.0508C85.1641 23.8555 85.4141 23.5312 85.5938 23.0781L85.9922 22.0352L81.5508 9.32031H85.1953L87.5508 17.207Z" fill="#0A143A"/>
<path d="M105.891 22H102.492V12.0625H98.25V22H94.8633V9.32031H105.891V22Z" fill="#0A143A"/>
<path d="M116.121 9.32031H119.508V22H116.121V14.1719L111.879 22H108.48V9.32031H111.879V17.1367L116.121 9.32031Z" fill="#0A143A"/>
<path d="M125.543 16.7617H122.73L122.332 4.9375H125.941L125.543 16.7617ZM124.137 18.6133C124.707 18.6133 125.164 18.7812 125.508 19.1172C125.859 19.4531 126.035 19.8828 126.035 20.4062C126.035 20.9219 125.859 21.3477 125.508 21.6836C125.164 22.0195 124.707 22.1875 124.137 22.1875C123.574 22.1875 123.117 22.0195 122.766 21.6836C122.422 21.3477 122.25 20.9219 122.25 20.4062C122.25 19.8906 122.422 19.4648 122.766 19.1289C123.117 18.7852 123.574 18.6133 124.137 18.6133Z" fill="#0A143A"/>
<defs>
<clipPath id="clip0">
<rect width="27" height="27" fill="white"/>
</clipPath>
</defs>
</svg>
